HIERARCHY
ROOT Hips
{
	OFFSET 0.000000 0.000000 0.000000
	CHANNELS 6 Xposition Yposition Zposition Xrotation Yrotation Zrotation
	JOINT LeftUpLeg_virtual
	{
		OFFSET 0.000000 0.000000 0.000000
		CHANNELS 3 Xrotation Yrotation Zrotation
		JOINT LeftUpLeg
		{
			OFFSET 13.026900 -6.336304 -1.092800
			CHANNELS 3 Xrotation Yrotation Zrotation
			JOINT LeftLeg
			{
				OFFSET 0.524474 -46.096886 9.782700
				CHANNELS 3 Xrotation Yrotation Zrotation
				JOINT LeftFoot
				{
					OFFSET -0.524474 -53.427422 -12.948200
					CHANNELS 3 Xrotation Yrotation Zrotation
					JOINT LeftToeBase
					{
						OFFSET 0.192200 -14.009700 16.364100
						CHANNELS 3 Xrotation Yrotation Zrotation
						JOINT LeftToe_End
						{
							OFFSET -1.784700 -0.561700 9.474800
							CHANNELS 3 Xrotation Yrotation Zrotation
							End Site
							{
								OFFSET 0 0 0
							}
						}
					}
				}
			}
		}
	}
	JOINT RightUpLeg_virtual
	{
		OFFSET 0.000000 0.000000 0.000000
		CHANNELS 3 Xrotation Yrotation Zrotation
		JOINT RightUpLeg
		{
			OFFSET -12.883000 -6.336304 -1.092800
			CHANNELS 3 Xrotation Yrotation Zrotation
			JOINT RightLeg
			{
				OFFSET -0.524587 -46.096825 9.782800
				CHANNELS 3 Xrotation Yrotation Zrotation
				JOINT RightFoot
				{
					OFFSET 0.524587 -53.427383 -12.948300
					CHANNELS 3 Xrotation Yrotation Zrotation
					JOINT RightToeBase
					{
						OFFSET -0.192200 -14.009700 16.364100
						CHANNELS 3 Xrotation Yrotation Zrotation
						JOINT RightToe_End
						{
							OFFSET 1.784700 -0.561700 9.474800
							CHANNELS 3 Xrotation Yrotation Zrotation
							End Site
							{
								OFFSET 0 0 0
							}
						}
					}
				}
			}
		}
	}
	JOINT Spine_virtual
	{
		OFFSET 0.000000 0.000000 0.000000
		CHANNELS 3 Xrotation Yrotation Zrotation
		JOINT Spine
		{
			OFFSET 0.072000 7.257294 -0.789700
			CHANNELS 3 Xrotation Yrotation Zrotation
			JOINT Spine1
			{
				OFFSET 0.000000 12.508769 -0.658067
				CHANNELS 3 Xrotation Yrotation Zrotation
				JOINT Spine1_split
				{
					OFFSET 0.000000 12.508769 -0.658067
					CHANNELS 3 Xrotation Yrotation Zrotation
					JOINT Spine2
					{
						OFFSET 0.000000 12.508769 -0.658067
						CHANNELS 3 Xrotation Yrotation Zrotation
						JOINT Neck_virtual
						{
							OFFSET 0.000000 0.000000 0.000000
							CHANNELS 3 Xrotation Yrotation Zrotation
							JOINT Neck
							{
								OFFSET 0.000000 14.033295 7.520400
								CHANNELS 3 Xrotation Yrotation Zrotation
								JOINT Head
								{
									OFFSET 0.000000 8.198502 5.703100
									CHANNELS 3 Xrotation Yrotation Zrotation
									JOINT HeadTop_End
									{
										OFFSET 0.000000 17.760803 13.332701
										CHANNELS 3 Xrotation Yrotation Zrotation
										End Site
										{
											OFFSET 0 0 0
										}
									}
								}
							}
						}
						JOINT LeftShoulder_virtual
						{
							OFFSET 0.000000 0.000000 0.000000
							CHANNELS 3 Xrotation Yrotation Zrotation
							JOINT LeftShoulder
							{
								OFFSET 6.292450 5.785301 -0.669000
								CHANNELS 3 Xrotation Yrotation Zrotation
								JOINT LeftShoulder_split
								{
									OFFSET 6.292450 5.785301 -0.669000
									CHANNELS 3 Xrotation Yrotation Zrotation
									JOINT LeftArm
									{
										OFFSET 13.907140 -6.093903 1.965100
										CHANNELS 3 Xrotation Yrotation Zrotation
										JOINT LeftForeArm
										{
											OFFSET 34.140198 0.000000 0.000000
											CHANNELS 3 Xrotation Yrotation Zrotation
											JOINT LeftHand
											{
												OFFSET 40.960209 0.000000 0.000000
												CHANNELS 3 Xrotation Yrotation Zrotation
												End Site
												{
													OFFSET 0 0 0
												}
											}
										}
									}
								}
							}
						}
						JOINT RightShoulder_virtual
						{
							OFFSET 0.000000 0.000000 0.000000
							CHANNELS 3 Xrotation Yrotation Zrotation
							JOINT RightShoulder
							{
								OFFSET -6.292450 5.785301 -0.669000
								CHANNELS 3 Xrotation Yrotation Zrotation
								JOINT RightShoulder_split
								{
									OFFSET -6.292450 5.785301 -0.669000
									CHANNELS 3 Xrotation Yrotation Zrotation
									JOINT RightArm
									{
										OFFSET -13.907140 -6.093903 1.965100
										CHANNELS 3 Xrotation Yrotation Zrotation
										JOINT RightForeArm
										{
											OFFSET -34.140198 0.000000 0.000000
											CHANNELS 3 Xrotation Yrotation Zrotation
											JOINT RightHand
											{
												OFFSET -40.960209 0.000000 0.000000
												CHANNELS 3 Xrotation Yrotation Zrotation
												End Site
												{
													OFFSET 0 0 0
												}
											}
										}
									}
								}
							}
						}
					}
				}
			}
		}
	}
}
MOTION
Frames: 4
Frame Time: 0.03333333
-3.300367 51.639114 96.600922 0.000000 0.000000 0.000000 18.761249 -22.266724 -6.776748 -6.183457 7.285475 0.156306 92.658312 -11.371083 -1.203943 30.332071 -5.522572 -26.404921 -0.421547 0.179493 -0.052621 0.000000 0.000000 0.000000 18.761249 -22.266724 -6.776748 4.750080 10.211053 -6.827653 62.444547 9.162584 -14.903799 48.471865 7.617588 19.126150 11.632422 -0.969984 -1.692171 0.000000 0.000000 0.000000 18.761249 -22.266724 -6.776748 5.485905 -0.826959 1.825541 -5.171069 1.550858 1.959063 0.000000 0.000000 0.000000 0.000000 0.000000 0.000000 -5.193917 1.508889 1.857960 -62.248725 1.353935 14.158356 12.349458 13.729142 -17.996369 0.000000 0.000000 0.000000 -5.193917 1.508889 1.857960 -18.582081 2.045156 -16.773567 0.000000 0.000000 0.000000 3.520080 11.137055 -50.723075 73.636836 -20.517122 30.047061 0.000000 0.000000 0.000000 -5.193917 1.508889 1.857960 -18.392410 3.617949 16.265220 0.000000 0.000000 0.000000 6.546132 -5.489168 58.074039 -12.534772 31.895016 15.129549 0.000000 0.000000 0.000000 
-3.034870 51.331871 99.175446 0.000000 0.000000 0.000000 20.638130 -22.929047 -6.811323 -4.881802 6.234960 -0.943667 89.941195 -11.752504 -1.092941 29.897609 -5.607948 -27.226664 -0.676340 0.771632 -0.079991 0.000000 0.000000 0.000000 20.638130 -22.929047 -6.811323 4.505346 9.279218 -6.731589 61.546951 9.418080 -14.556050 46.198310 7.060018 18.694276 13.783807 -1.925730 -2.028555 0.000000 0.000000 0.000000 20.638130 -22.929047 -6.811323 5.376126 -0.821172 2.012197 -5.387901 1.463337 2.228129 0.000000 0.000000 0.000000 0.000000 0.000000 0.000000 -5.408686 1.438964 2.129568 -64.248694 1.118114 14.686595 13.384889 14.022329 -18.292375 0.000000 0.000000 0.000000 -5.408686 1.438964 2.129568 -18.927006 2.423269 -16.209299 0.000000 0.000000 0.000000 6.399253 13.475594 -49.024045 73.253314 -19.968929 30.111388 0.000000 0.000000 0.000000 -5.408686 1.438964 2.129568 -18.645057 3.158379 16.723940 0.000000 0.000000 0.000000 7.365358 -4.012502 58.411655 -23.798095 35.944209 23.539301 0.000000 0.000000 0.000000 
-2.880660 50.895561 101.724487 0.000000 0.000000 0.000000 22.770454 -23.216641 -6.761484 -3.851994 4.642827 -2.030494 87.090089 -10.737606 -0.767436 30.092868 -5.682582 -27.211691 -0.743922 0.262946 -0.424644 0.000000 0.000000 0.000000 22.770454 -23.216641 -6.761484 4.593853 8.465761 -6.481300 60.509862 10.136142 -14.021596 45.778516 7.148144 19.151844 13.689338 -3.426834 -2.677830 0.000000 0.000000 0.000000 22.770454 -23.216641 -6.761484 5.293771 -0.762455 2.163705 -5.579763 1.386651 2.467672 0.000000 0.000000 0.000000 0.000000 0.000000 0.000000 -5.597971 1.382291 2.371570 -66.531725 0.851088 14.977229 14.412290 14.182155 -18.577614 0.000000 0.000000 0.000000 -5.597971 1.382291 2.371570 -19.324734 2.867699 -15.372848 0.000000 0.000000 0.000000 11.222554 12.997953 -47.136085 70.495858 -22.628977 28.974472 0.000000 0.000000 0.000000 -5.597971 1.382291 2.371570 -18.954764 2.720318 17.238105 0.000000 0.000000 0.000000 8.007435 -1.543122 58.369007 -23.446766 42.276446 23.971106 0.000000 0.000000 0.000000 
-2.758451 50.251305 104.387070 0.000000 0.000000 0.000000 25.117198 -23.218986 -6.638989 -2.851262 2.570743 -3.322041 83.950415 -8.724160 -0.189459 30.250003 -5.802566 -27.489411 -0.383171 -0.711376 -0.457322 0.000000 0.000000 0.000000 25.117198 -23.218986 -6.638989 4.934798 7.876537 -6.436643 59.189880 9.736503 -13.546639 47.003566 7.474330 19.444717 12.048531 -3.618505 -4.065639 0.000000 0.000000 0.000000 25.117198 -23.218986 -6.638989 5.249044 -0.660718 2.270940 -5.734333 1.325686 2.674346 0.000000 0.000000 0.000000 0.000000 0.000000 0.000000 -5.749950 1.343243 2.579083 -68.979754 0.603834 15.062030 15.389057 14.174244 -18.750917 0.000000 0.000000 0.000000 -5.749950 1.343243 2.579083 -19.699138 3.311107 -14.383110 0.000000 0.000000 0.000000 15.604016 11.619163 -44.492395 63.822059 -28.749185 24.713732 0.000000 0.000000 0.000000 -5.749950 1.343243 2.579083 -19.283605 2.435056 17.604324 0.000000 0.000000 0.000000 8.641507 1.247376 57.688973 -13.643505 49.929274 16.025002 0.000000 0.000000 0.000000 
